<svg width="51" height="32" viewBox="0 0 51 32" fill="none" xmlns="http://www.w3.org/2000/svg">
<path d="M0 4C0 1.79086 1.79086 0 4 0H51V32H4C1.79086 32 0 30.2091 0 28V4Z" fill="white"/>
<path d="M17.9219 18.0312H13.1562L12.0859 21H10.5391L14.8828 9.625H16.1953L20.5469 21H19.0078L17.9219 18.0312ZM13.6094 16.7969H17.4766L15.5391 11.4766L13.6094 16.7969ZM25.4297 15.9297C24.1432 15.5599 23.2057 15.1068 22.6172 14.5703C22.0339 14.0286 21.7422 13.362 21.7422 12.5703C21.7422 11.6745 22.099 10.9349 22.8125 10.3516C23.5312 9.76302 24.4635 9.46875 25.6094 9.46875C26.3906 9.46875 27.0859 9.61979 27.6953 9.92188C28.3099 10.224 28.7839 10.6406 29.1172 11.1719C29.4557 11.7031 29.625 12.2839 29.625 12.9141H28.1172C28.1172 12.2266 27.8984 11.6875 27.4609 11.2969C27.0234 10.901 26.4062 10.7031 25.6094 10.7031C24.8698 10.7031 24.2917 10.8672 23.875 11.1953C23.4635 11.5182 23.2578 11.9688 23.2578 12.5469C23.2578 13.0104 23.4531 13.4036 23.8438 13.7266C24.2396 14.0443 24.9089 14.3359 25.8516 14.6016C26.7995 14.8672 27.5391 15.1615 28.0703 15.4844C28.6068 15.8021 29.0026 16.1745 29.2578 16.6016C29.5182 17.0286 29.6484 17.5312 29.6484 18.1094C29.6484 19.0312 29.2891 19.7708 28.5703 20.3281C27.8516 20.8802 26.8906 21.1562 25.6875 21.1562C24.9062 21.1562 24.1771 21.0078 23.5 20.7109C22.8229 20.4089 22.2995 19.9974 21.9297 19.4766C21.5651 18.9557 21.3828 18.3646 21.3828 17.7031H22.8906C22.8906 18.3906 23.1432 18.9349 23.6484 19.3359C24.1589 19.7318 24.8385 19.9297 25.6875 19.9297C26.4792 19.9297 27.0859 19.7682 27.5078 19.4453C27.9297 19.1224 28.1406 18.6823 28.1406 18.125C28.1406 17.5677 27.9453 17.138 27.5547 16.8359C27.1641 16.5286 26.4557 16.2266 25.4297 15.9297ZM39.9453 17.3906C39.8047 18.5938 39.3594 19.5234 38.6094 20.1797C37.8646 20.8307 36.8724 21.1562 35.6328 21.1562C34.2891 21.1562 33.2109 20.6745 32.3984 19.7109C31.5911 18.7474 31.1875 17.4583 31.1875 15.8438V14.75C31.1875 13.6927 31.375 12.763 31.75 11.9609C32.1302 11.1589 32.6667 10.5443 33.3594 10.1172C34.0521 9.6849 34.8542 9.46875 35.7656 9.46875C36.974 9.46875 37.9427 9.80729 38.6719 10.4844C39.401 11.1562 39.8255 12.0885 39.9453 13.2812H38.4375C38.3073 12.375 38.0234 11.7188 37.5859 11.3125C37.1536 10.9062 36.5469 10.7031 35.7656 10.7031C34.8073 10.7031 34.0547 11.0573 33.5078 11.7656C32.9661 12.474 32.6953 13.4818 32.6953 14.7891V15.8906C32.6953 17.125 32.9531 18.1068 33.4688 18.8359C33.9844 19.5651 34.7057 19.9297 35.6328 19.9297C36.4661 19.9297 37.1042 19.7422 37.5469 19.3672C37.9948 18.987 38.2917 18.3281 38.4375 17.3906H39.9453Z" fill="#3B3B3B"/>
<path d="M51 0H52V-1H51V0ZM51 32V33H52V32H51ZM4 1H51V-1H4V1ZM50 0V32H52V0H50ZM51 31H4V33H51V31ZM1 28V4H-1V28H1ZM4 31C2.34315 31 1 29.6569 1 28H-1C-1 30.7614 1.23858 33 4 33V31ZM4 -1C1.23858 -1 -1 1.23858 -1 4H1C1 2.34315 2.34315 1 4 1V-1Z" fill="#B8B8B8"/>
</svg>
