<svg width="60" height="32" viewBox="0 0 60 32" fill="none" xmlns="http://www.w3.org/2000/svg">
<path d="M0 0H56C58.2091 0 60 1.79086 60 4V28C60 30.2091 58.2091 32 56 32H0V0Z" fill="#B8B8B8"/>
<path d="M11.5625 21V9.625H14.7734C15.763 9.625 16.638 9.84375 17.3984 10.2812C18.1589 10.7188 18.7448 11.3411 19.1562 12.1484C19.5729 12.9557 19.7839 13.8828 19.7891 14.9297V15.6562C19.7891 16.7292 19.5807 17.6693 19.1641 18.4766C18.7526 19.2839 18.1615 19.9036 17.3906 20.3359C16.625 20.7682 15.7318 20.9896 14.7109 21H11.5625ZM13.0625 10.8594V19.7734H14.6406C15.7969 19.7734 16.6953 19.4141 17.3359 18.6953C17.9818 17.9766 18.3047 16.9531 18.3047 15.625V14.9609C18.3047 13.6693 18 12.6667 17.3906 11.9531C16.7865 11.2344 15.9271 10.8698 14.8125 10.8594H13.0625ZM28.4922 15.7422H23.5625V19.7734H29.2891V21H22.0625V9.625H29.2109V10.8594H23.5625V14.5156H28.4922V15.7422ZM34.5078 15.9297C33.2214 15.5599 32.2839 15.1068 31.6953 14.5703C31.112 14.0286 30.8203 13.362 30.8203 12.5703C30.8203 11.6745 31.1771 10.9349 31.8906 10.3516C32.6094 9.76302 33.5417 9.46875 34.6875 9.46875C35.4688 9.46875 36.1641 9.61979 36.7734 9.92188C37.388 10.224 37.862 10.6406 38.1953 11.1719C38.5339 11.7031 38.7031 12.2839 38.7031 12.9141H37.1953C37.1953 12.2266 36.9766 11.6875 36.5391 11.2969C36.1016 10.901 35.4844 10.7031 34.6875 10.7031C33.9479 10.7031 33.3698 10.8672 32.9531 11.1953C32.5417 11.5182 32.3359 11.9688 32.3359 12.5469C32.3359 13.0104 32.5312 13.4036 32.9219 13.7266C33.3177 14.0443 33.987 14.3359 34.9297 14.6016C35.8776 14.8672 36.6172 15.1615 37.1484 15.4844C37.6849 15.8021 38.0807 16.1745 38.3359 16.6016C38.5964 17.0286 38.7266 17.5312 38.7266 18.1094C38.7266 19.0312 38.3672 19.7708 37.6484 20.3281C36.9297 20.8802 35.9688 21.1562 34.7656 21.1562C33.9844 21.1562 33.2552 21.0078 32.5781 20.7109C31.901 20.4089 31.3776 19.9974 31.0078 19.4766C30.6432 18.9557 30.4609 18.3646 30.4609 17.7031H31.9688C31.9688 18.3906 32.2214 18.9349 32.7266 19.3359C33.237 19.7318 33.9167 19.9297 34.7656 19.9297C35.5573 19.9297 36.1641 19.7682 36.5859 19.4453C37.0078 19.1224 37.2188 18.6823 37.2188 18.125C37.2188 17.5677 37.0234 17.138 36.6328 16.8359C36.2422 16.5286 35.5339 16.2266 34.5078 15.9297ZM49.0234 17.3906C48.8828 18.5938 48.4375 19.5234 47.6875 20.1797C46.9427 20.8307 45.9505 21.1562 44.7109 21.1562C43.3672 21.1562 42.2891 20.6745 41.4766 19.7109C40.6693 18.7474 40.2656 17.4583 40.2656 15.8438V14.75C40.2656 13.6927 40.4531 12.763 40.8281 11.9609C41.2083 11.1589 41.7448 10.5443 42.4375 10.1172C43.1302 9.6849 43.9323 9.46875 44.8438 9.46875C46.0521 9.46875 47.0208 9.80729 47.75 10.4844C48.4792 11.1562 48.9036 12.0885 49.0234 13.2812H47.5156C47.3854 12.375 47.1016 11.7188 46.6641 11.3125C46.2318 10.9062 45.625 10.7031 44.8438 10.7031C43.8854 10.7031 43.1328 11.0573 42.5859 11.7656C42.0443 12.474 41.7734 13.4818 41.7734 14.7891V15.8906C41.7734 17.125 42.0312 18.1068 42.5469 18.8359C43.0625 19.5651 43.7839 19.9297 44.7109 19.9297C45.5443 19.9297 46.1823 19.7422 46.625 19.3672C47.0729 18.987 47.3698 18.3281 47.5156 17.3906H49.0234Z" fill="#3B3B3B"/>
<path d="M0 0V-1H-1V0H0ZM0 32H-1V33H0V32ZM0 1H56V-1H0V1ZM59 4V28H61V4H59ZM56 31H0V33H56V31ZM1 32V0H-1V32H1ZM59 28C59 29.6569 57.6569 31 56 31V33C58.7614 33 61 30.7614 61 28H59ZM56 1C57.6569 1 59 2.34315 59 4H61C61 1.23858 58.7614 -1 56 -1V1Z" fill="#B8B8B8"/>
</svg>
