<svg width="36" height="32" viewBox="0 0 36 32" fill="none" xmlns="http://www.w3.org/2000/svg">
<path d="M0 4C0 1.79086 1.79086 0 4 0H32C34.2091 0 36 1.79086 36 4V28C36 30.2091 34.2091 32 32 32H4C1.79086 32 0 30.2091 0 28V4Z" fill="#D4D4D4"/>
<path d="M18 5.37405C23.8655 5.37405 28.6259 10.1345 28.6259 16C28.6259 21.8655 23.8655 26.626 18 26.626C12.1345 26.626 7.37402 21.8655 7.37402 16C7.37402 10.1345 12.1345 5.37405 18 5.37405Z" stroke="#757575" stroke-width="0.732824"/>
<path d="M19.2242 6.70687V7.79809C20.5973 8.00115 21.861 8.53881 22.9284 9.329L23.699 8.55954C22.425 7.58187 20.8937 6.9247 19.2242 6.70687ZM16.7704 6.7103C15.1019 6.92939 13.5721 7.58793 12.299 8.56526L13.065 9.33473H13.0685C14.1354 8.54402 15.3977 8.00233 16.7704 7.79809V6.7103ZM17.3131 8.93397V12.6072C16.8681 12.6971 16.4522 12.8705 16.0868 13.1134L13.4887 10.5164L12.5166 11.4885L15.117 14.0889C14.8747 14.4539 14.6982 14.8688 14.6086 15.313H10.9341V16.687H14.6086C14.6982 17.131 14.8749 17.5428 15.117 17.9076L12.5166 20.5092L13.4887 21.4813L16.0868 18.8832C16.4522 19.1261 16.8681 19.3018 17.3131 19.3916V23.066H18.6872V19.3916C19.1326 19.3017 19.5456 19.123 19.9112 18.8798L22.5116 21.4813L23.4837 20.5092L20.8834 17.9076C21.1254 17.5429 21.3033 17.1309 21.3929 16.687H25.0662V15.313H21.3929C21.3032 14.8689 21.1255 14.4538 20.8834 14.0889L23.4837 11.4885L22.5116 10.5164L19.9112 13.1168C19.5456 12.8735 19.1326 12.6972 18.6872 12.6072V8.93397H17.3131ZM25.4349 10.2954L24.6654 11.0649C25.4577 12.1328 25.9979 13.3993 26.2021 14.7737H27.2933C27.0742 13.1032 26.4145 11.5696 25.4349 10.2954ZM10.562 10.3011C9.58436 11.5741 8.92589 13.1051 8.70703 14.7737H9.7994C10.0034 13.4015 10.5421 12.1386 11.3326 11.0718L10.562 10.3011ZM8.70703 17.2263C8.92526 18.8947 9.58262 20.4256 10.5597 21.6989L11.3292 20.9282C10.5395 19.8616 10.0028 18.5983 9.7994 17.2263H8.70703ZM26.2021 17.2263C25.9977 18.5998 25.4573 19.8637 24.6654 20.9317L25.4349 21.7011C26.4135 20.4274 27.0739 18.8958 27.2933 17.2263H26.2021ZM13.065 22.6653L12.2956 23.4347C13.569 24.4138 15.1011 25.0737 16.7704 25.2931V24.2008C15.3971 23.9962 14.1322 23.4569 13.065 22.6653ZM22.9284 22.6676C21.8606 23.4585 20.5979 24.0009 19.2242 24.2042V25.2931C20.8939 25.0751 22.425 24.4158 23.699 23.4382L22.9318 22.6676H22.9284Z" fill="#757575"/>
</svg>
