<svg width="20" height="20" viewBox="0 0 20 20" fill="none" xmlns="http://www.w3.org/2000/svg">
<path d="M11.2242 0.706787V1.79801C12.5973 2.00107 13.861 2.53873 14.9284 3.32892L15.699 2.55946C14.425 1.58179 12.8937 0.924618 11.2242 0.706787ZM8.77039 0.710222C7.10185 0.929309 5.57206 1.58785 4.29902 2.56518L5.06505 3.33465H5.06848C6.13536 2.54394 7.39775 2.00225 8.77039 1.79801V0.710222ZM9.31314 2.93389V6.60717C8.86814 6.697 8.4522 6.87037 8.0868 7.11328L5.48871 4.51633L4.51657 5.48847L7.11695 8.08885C6.87471 8.45377 6.69823 8.86868 6.60856 9.31289H2.93413V10.6869H6.60856C6.69822 11.1309 6.87486 11.5428 7.11695 11.9076L4.51657 14.5091L5.48871 15.4812L8.0868 12.8831C8.4522 13.126 8.86814 13.3017 9.31314 13.3915V17.0659H10.6872V13.3915C11.1326 13.3016 11.5456 13.123 11.9112 12.8797L14.5116 15.4812L15.4837 14.5091L12.8834 11.9076C13.1254 11.5428 13.3033 11.1308 13.3929 10.6869H17.0662V9.31289H13.3929C13.3032 8.86877 13.1255 8.45372 12.8834 8.08885L15.4837 5.48847L14.5116 4.51633L11.9112 7.11671C11.5456 6.87344 11.1326 6.69709 10.6872 6.60717V2.93389H9.31314ZM17.4349 4.29534L16.6654 5.0648C17.4577 6.13271 17.9979 7.39917 18.2021 8.77358H19.2933C19.0742 7.10311 18.4145 5.56949 17.4349 4.29534ZM2.56199 4.30106C1.58436 5.57399 0.925886 7.10501 0.707031 8.77358H1.7994C2.00336 7.4014 2.54209 6.1385 3.3326 5.07167L2.56199 4.30106ZM0.707031 11.2263C0.925263 12.8946 1.58262 14.4255 2.5597 15.6988L3.32917 14.9282C2.53954 13.8615 2.0028 12.5982 1.7994 11.2263H0.707031ZM18.2021 11.2263C17.9977 12.5998 17.4573 13.8637 16.6654 14.9316L17.4349 15.7011C18.4135 14.4274 19.0739 12.8957 19.2933 11.2263H18.2021ZM5.06505 16.6652L4.29558 17.4347C5.56897 18.4137 7.10109 19.0736 8.77039 19.293V18.2007C7.39715 17.9961 6.13217 17.4568 5.06505 16.6652ZM14.9284 16.6675C13.8606 17.4584 12.5979 18.0008 11.2242 18.2041V19.293C12.8939 19.075 14.425 18.4157 15.699 17.4381L14.9318 16.6675H14.9284Z" fill="#757575"/>
</svg>
