<svg width="18" height="18" viewBox="0 0 18 18" fill="none" xmlns="http://www.w3.org/2000/svg">
<path fill-rule="evenodd" clip-rule="evenodd" d="M8.69269 12.1785C8.49958 11.8967 7.46944 10.3932 7.46944 10.3932L8.25454 12.5524L5.82057 12.9058L8.25454 13.2591L7.31234 15.1043C7.31234 15.1043 8.48784 13.8685 8.65391 13.6939C8.58547 16.3695 8.56865 17.028 8.56865 17.028C8.56865 17.028 2.56213 14.2406 5.89908 8.07687C5.89908 8.07687 1.73769 3.48358 5.50648 0.656934C5.50648 0.656934 -0.931876 4.54354 3.151 11.2176C3.151 11.2176 -0.225224 7.91988 1.54139 4.58278C1.54139 4.58278 -1.52074 8.90134 2.20878 13.6517C2.20878 13.6517 1.18809 13.0235 0.285156 10.6288C0.285156 10.6288 0.943798 17.758 8.91999 17.8515C8.91997 17.8524 8.91997 17.8524 8.91997 17.8524C8.94655 17.8524 8.97307 17.8523 8.99948 17.8522C9.02589 17.8524 9.0524 17.8524 9.07897 17.8524C9.07897 17.8524 9.07897 17.8524 9.07897 17.8515C17.0552 17.758 17.7138 10.6288 17.7138 10.6288C16.8109 13.0235 15.7902 13.6517 15.7902 13.6517C19.5197 8.90134 16.4576 4.58278 16.4576 4.58278C18.2242 7.91988 14.848 11.2176 14.848 11.2176C18.9308 4.54354 12.4925 0.656934 12.4925 0.656934C16.2613 3.48358 12.0999 8.07687 12.0999 8.07687C15.4368 14.2406 9.43033 17.028 9.43033 17.028C9.43033 17.028 9.41348 16.3695 9.34504 13.6939C9.51111 13.8685 10.6866 15.1043 10.6866 15.1043L9.74441 13.2591L12.1784 12.9058L9.74441 12.5524L10.5295 10.3932C10.5295 10.3932 9.49936 11.8967 9.30626 12.1785C9.21883 8.76087 9.00193 0.281061 9.00088 0.241038C9.00048 0.146998 9.00048 0.146484 9.00048 0.146484C9.00048 0.146484 9.00048 0.146568 8.99947 0.18557C8.99847 0.146574 8.99847 0.146484 8.99847 0.146484C8.99847 0.146484 8.99847 0.146998 8.99804 0.241038C8.99635 0.307914 8.77992 8.76861 8.69269 12.1785" fill="#757575"/>
</svg>
