<svg width="36" height="32" viewBox="0 0 36 32" fill="none" xmlns="http://www.w3.org/2000/svg">
<path d="M0 4C0 1.79086 1.79086 0 4 0H32C34.2091 0 36 1.79086 36 4V28C36 30.2091 34.2091 32 32 32H4C1.79086 32 0 30.2091 0 28V4Z" fill="#D4D4D4"/>
<path d="M8.23605 15.766C8.35354 12.6511 9.93212 9.77821 12.8179 7.87978C12.8264 7.88297 12.9012 7.85575 12.867 7.92038C12.6384 8.13233 8.52868 12.9871 12.3116 16.8191C12.3116 16.8191 14.2992 18.7299 15.8404 16.9168C15.8404 16.9168 17.3613 14.948 15.8212 11.9634C15.8212 11.9634 15.4313 10.9888 14.0268 10.3843L15.1579 9.1363C15.1579 9.1363 16.1138 9.54643 16.8539 10.6588C16.8539 10.6588 16.8934 9.48765 15.9963 8.23971L17.75 6.25L19.4861 8.221C19.4861 8.221 18.6877 9.35205 18.629 10.6775C18.629 10.6775 19.1742 9.78034 20.3448 9.13637L21.4556 10.3844C21.4556 10.3844 20.3875 10.7363 19.672 11.9506C19.0567 13.0758 18.5831 15.4821 19.6996 16.9581C19.6996 16.9581 20.9492 18.7299 23.1473 16.8535C23.1473 16.8535 27.1888 13.2323 22.7329 7.9968C22.7329 7.9968 22.4894 7.78159 22.7627 7.89855C24.7322 9.33241 27.0904 11.2233 27.3339 15.9424C27.2378 21.6649 23.4057 25.75 17.8099 25.75C12.3309 25.75 8.07163 21.1778 8.23605 15.766Z" fill="#757575"/>
</svg>
