<svg width="20" height="20" viewBox="0 0 20 20" fill="none" xmlns="http://www.w3.org/2000/svg">
<path d="M0.236538 9.76602C0.35403 6.65113 1.93261 3.77821 4.81838 1.87977C4.8269 1.88297 4.90166 1.85574 4.86751 1.92038C4.63891 2.13233 0.529168 6.9871 4.31207 10.8191C4.31207 10.8191 6.29964 12.7299 7.84088 10.9168C7.84088 10.9168 9.36175 8.94798 7.82164 5.96336C7.82164 5.96336 7.43182 4.98881 6.02731 4.38431L7.15843 3.1363C7.15843 3.1363 8.11427 3.54642 8.85443 4.65877C8.85443 4.65877 8.89391 3.48764 7.99678 2.2397L9.7505 0.25L11.4866 2.221C11.4866 2.221 10.6882 3.35205 10.6295 4.67747C10.6295 4.67747 11.1747 3.78034 12.3453 3.13637L13.456 4.38437C13.456 4.38437 12.388 4.73632 11.6724 5.95064C11.0572 7.07577 10.5836 9.48205 11.7001 10.958C11.7001 10.958 12.9497 12.7299 15.1478 10.8535C15.1478 10.8535 19.1892 7.23227 14.7333 1.9968C14.7333 1.9968 14.4898 1.78159 14.7632 1.89854C16.7327 3.33241 19.0909 5.22332 19.3344 9.94236C19.2383 15.6649 15.4061 19.75 9.81034 19.75C4.33137 19.75 0.0721161 15.1778 0.236538 9.76602Z" fill="#757575"/>
</svg>
