<svg width="5" height="5" viewBox="0 0 5 5" fill="none" xmlns="http://www.w3.org/2000/svg">
<mask id="path-1-inside-1_603_6457" fill="white">
<path d="M3.914 3.91399C3.133 4.69499 0 4.99999 0 4.99999C0 4.99999 0.305 1.86699 1.086 1.08599C1.867 0.304994 3.133 0.304994 3.914 1.08599C4.695 1.86699 4.695 3.13299 3.914 3.91399Z"/>
</mask>
<path d="M0 4.99999L-0.995295 4.9031L-1.11309 6.11308L0.0968929 5.99529L0 4.99999ZM3.20689 3.20689C3.20832 3.20546 3.17139 3.2401 3.06168 3.29693C2.95775 3.35075 2.81977 3.40852 2.6485 3.46726C2.3048 3.58516 1.88877 3.68623 1.47047 3.7688C1.05634 3.85054 0.661899 3.90992 0.369547 3.94891C0.223984 3.96832 0.105194 3.98248 0.0237216 3.9917C-0.0169829 3.99631 -0.0482793 3.99967 -0.0688432 4.00182C-0.0791225 4.0029 -0.0867112 4.00368 -0.0914436 4.00415C-0.0938095 4.00439 -0.0954605 4.00456 -0.0963759 4.00465C-0.0968336 4.00469 -0.0971072 4.00472 -0.0971943 4.00473C-0.0972378 4.00473 -0.0972347 4.00473 -0.0971845 4.00473C-0.0971596 4.00472 -0.0970865 4.00472 -0.0970741 4.00472C-0.0969894 4.00471 -0.0968929 4.0047 0 4.99999C0.0968929 5.99529 0.0970133 5.99528 0.0971457 5.99526C0.0972058 5.99526 0.0973505 5.99524 0.0974707 5.99523C0.0977114 5.99521 0.0980001 5.99518 0.0983364 5.99515C0.099009 5.99508 0.0998722 5.995 0.100923 5.99489C0.103026 5.99468 0.10588 5.9944 0.109466 5.99404C0.116637 5.99331 0.126736 5.99228 0.139595 5.99093C0.165306 5.98824 0.202082 5.98428 0.248571 5.97902C0.341486 5.96851 0.473563 5.95274 0.633921 5.93136C0.953413 5.88875 1.39103 5.82307 1.85778 5.73094C2.32036 5.63963 2.83402 5.51802 3.29741 5.35907C3.72365 5.21286 4.25418 4.98803 4.62111 4.6211L3.20689 3.20689ZM0 4.99999C0.995295 5.09689 0.995285 5.09698 0.995277 5.09707C0.995276 5.09708 0.995269 5.09715 0.995266 5.09718C0.995261 5.09723 0.995261 5.09723 0.995265 5.09719C0.995274 5.0971 0.995301 5.09683 0.995346 5.09637C0.995437 5.09545 0.995602 5.0938 0.99584 5.09144C0.996318 5.0867 0.997093 5.07912 0.99817 5.06884C1.00033 5.04827 1.00369 5.01698 1.00829 4.97627C1.01751 4.8948 1.03167 4.77601 1.05108 4.63045C1.09007 4.33809 1.14945 3.94365 1.2312 3.52952C1.31376 3.11123 1.41483 2.6952 1.53273 2.3515C1.59148 2.18023 1.64924 2.04225 1.70307 1.93832C1.75989 1.8286 1.79453 1.79168 1.79311 1.7931L0.378893 0.378887C0.0119639 0.745817 -0.212866 1.27634 -0.359073 1.70258C-0.518022 2.16598 -0.639637 2.67964 -0.730945 3.14222C-0.823076 3.60896 -0.888759 4.04658 -0.931365 4.36607C-0.95275 4.52643 -0.968517 4.65851 -0.979029 4.75142C-0.984289 4.79791 -0.988244 4.83469 -0.990938 4.8604C-0.992286 4.87326 -0.993319 4.88336 -0.994043 4.89053C-0.994405 4.89411 -0.99469 4.89697 -0.994898 4.89907C-0.995002 4.90012 -0.995088 4.90098 -0.995154 4.90166C-0.995187 4.90199 -0.995215 4.90228 -0.995238 4.90252C-0.99525 4.90264 -0.995264 4.90279 -0.99527 4.90285C-0.995283 4.90298 -0.995295 4.9031 0 4.99999ZM1.79311 1.7931C2.18358 1.40263 2.81642 1.40263 3.20689 1.7931L4.62111 0.378887C3.44958 -0.792637 1.55042 -0.792637 0.378893 0.378887L1.79311 1.7931ZM3.20689 1.7931C3.59737 2.18358 3.59737 2.81641 3.20689 3.20689L4.62111 4.6211C5.79263 3.44958 5.79263 1.55041 4.62111 0.378887L3.20689 1.7931Z" fill="#3B3B3B" mask="url(#path-1-inside-1_603_6457)"/>
</svg>
