<svg width="108" height="110" viewBox="0 0 108 110" fill="none" xmlns="http://www.w3.org/2000/svg">
<path d="M0.0805865 53.6839C0.741477 36.1626 9.621 20.0024 25.8534 9.32372C25.9014 9.34169 26.3219 9.18854 26.1298 9.55213C24.8439 10.7443 1.72663 38.0524 23.0054 59.6075C23.0054 59.6075 34.1855 70.3555 42.855 60.1572C42.855 60.1572 51.4099 49.0824 42.7468 32.2939C42.7468 32.2939 40.554 26.812 32.6537 23.4117L39.0162 16.3917C39.0162 16.3917 44.3928 18.6986 48.5563 24.9556C48.5563 24.9556 48.7783 18.368 43.7319 11.3483L53.5966 0.15625L63.3621 11.2431C63.3621 11.2431 58.8714 17.6053 58.5408 25.0608C58.5408 25.0608 61.6078 20.0144 68.1924 16.3921L74.4403 23.4121C74.4403 23.4121 68.4324 25.3918 64.4075 32.2223C60.9469 38.5512 58.2828 52.0865 64.5633 60.389C64.5633 60.389 71.5923 70.3559 83.9564 59.8008C83.9564 59.8008 106.69 39.4315 81.6251 9.98199C81.6251 9.98199 80.2554 8.77141 81.7932 9.42931C92.8715 17.4948 106.136 28.1312 107.506 54.6758C106.965 86.8651 85.4096 109.844 53.9332 109.844C23.114 109.843 -0.844286 84.1249 0.0805865 53.6839Z" fill="#EDEDED"/>
</svg>
