<svg width="8" height="14" viewBox="0 0 8 14" fill="none" xmlns="http://www.w3.org/2000/svg">
<path d="M4 10V7.5C4 7.10218 3.84196 6.72064 3.56066 6.43934C3.27936 6.15804 2.89782 6 2.5 6V6C2.10218 6 1.72064 6.15804 1.43934 6.43934C1.15804 6.72064 1 7.10218 1 7.5V11C1.05225 11.501 1.21362 11.9844 1.47277 12.4163C1.73192 12.8483 2.08255 13.2181 2.5 13.5H6L7.348 9.008C7.44731 8.67491 7.45868 8.32179 7.381 7.983L6.181 2.774C6.06629 2.27665 5.76578 1.84198 5.341 1.559L4.5 1" stroke="#3B3B3B" stroke-linecap="round" stroke-linejoin="round"/>
</svg>
